<?xml version="1.0" encoding="UTF-8" standalone="no"?>
<!-- Created with Inkscape (http://www.inkscape.org/) -->

<svg
   xmlns:dc="http://purl.org/dc/elements/1.1/"
   xmlns:cc="http://creativecommons.org/ns#"
   xmlns:rdf="http://www.w3.org/1999/02/22-rdf-syntax-ns#"
   xmlns:svg="http://www.w3.org/2000/svg"
   xmlns="http://www.w3.org/2000/svg"
   xmlns:xlink="http://www.w3.org/1999/xlink"
   version="1.1"
   width="128"
   height="128"
   viewBox="0 0 256 256"
   id="svg1"
   xml:space="preserve"><defs
     id="defs509"><linearGradient
       x1="126.17725"
       y1="175.92969"
       x2="126.17725"
       y2="186.74023"
       id="linearGradient2939"
       gradientUnits="userSpaceOnUse"><stop
         id="stop2941"
         style="stop-color:#ffffff;stop-opacity:1"
         offset="0" /><stop
         id="stop2943"
         style="stop-color:#ff0000;stop-opacity:1"
         offset="0.79774499" /><stop
         id="stop2945"
         style="stop-color:#b10000;stop-opacity:1"
         offset="1" /></linearGradient><radialGradient
       cx="126.17676"
       cy="181.33594"
       r="81.344734"
       fx="126.17676"
       fy="181.33594"
       id="XMLID_31_"
       gradientUnits="userSpaceOnUse"><stop
         id="stop287"
         style="stop-color:#824f26;stop-opacity:1"
         offset="0" /><stop
         id="stop289"
         style="stop-color:#600000;stop-opacity:1"
         offset="1" /></radialGradient><linearGradient
       x1="126.17725"
       y1="175.92969"
       x2="126.17725"
       y2="186.74023"
       id="XMLID_38_"
       gradientUnits="userSpaceOnUse"><stop
         id="stop406"
         style="stop-color:#ffe091;stop-opacity:1"
         offset="0" /><stop
         id="stop408"
         style="stop-color:#ff6d00;stop-opacity:1"
         offset="0.79774499" /><stop
         id="stop410"
         style="stop-color:#cf3f00;stop-opacity:1"
         offset="1" /></linearGradient><linearGradient
       x1="125.95068"
       y1="229.97754"
       x2="125.95068"
       y2="148.00539"
       id="XMLID_39_"
       gradientUnits="userSpaceOnUse"><stop
         id="stop427"
         style="stop-color:#ffe091;stop-opacity:1"
         offset="0" /><stop
         id="stop429"
         style="stop-color:#ff6d00;stop-opacity:1"
         offset="0.79774499" /><stop
         id="stop431"
         style="stop-color:#cf0000;stop-opacity:1"
         offset="1" /></linearGradient><linearGradient
       x1="125.95068"
       y1="192.5957"
       x2="125.95068"
       y2="187.64168"
       id="XMLID_40_"
       gradientUnits="userSpaceOnUse"><stop
         id="stop448"
         style="stop-color:#ffffff;stop-opacity:0"
         offset="0" /><stop
         id="stop450"
         style="stop-color:#000000;stop-opacity:1"
         offset="1" /></linearGradient><linearGradient
       x1="126.17627"
       y1="185.83984"
       x2="126.17627"
       y2="267.81442"
       id="XMLID_41_"
       gradientUnits="userSpaceOnUse"><stop
         id="stop465"
         style="stop-color:#ffffde;stop-opacity:1"
         offset="0" /><stop
         id="stop467"
         style="stop-color:#ff9200;stop-opacity:1"
         offset="1" /></linearGradient><linearGradient
       x1="120.3208"
       y1="209.26074"
       x2="134.73535"
       y2="209.26074"
       id="linearGradient20037"
       xlink:href="#linearGradient2939"
       gradientUnits="userSpaceOnUse"
       gradientTransform="matrix(0,1,-1,0,336.7888,81.73266)" /><linearGradient
       x1="6"
       y1="95.46875"
       x2="6"
       y2="98"
       id="linearGradient2033"
       xlink:href="#XMLID_38_"
       gradientUnits="userSpaceOnUse"
       gradientTransform="matrix(0,-4,4,0,-353.1069,270.1749)" /><linearGradient
       x1="125.95068"
       y1="192.5957"
       x2="125.95068"
       y2="187.64168"
       id="linearGradient2050"
       xlink:href="#XMLID_40_"
       gradientUnits="userSpaceOnUse"
       gradientTransform="matrix(0.9375,0,0,0.9375,9.70952,-151.0913)" /><linearGradient
       x1="125.95068"
       y1="229.97754"
       x2="125.95068"
       y2="148.00539"
       id="linearGradient2053"
       xlink:href="#XMLID_39_"
       gradientUnits="userSpaceOnUse"
       gradientTransform="matrix(0.9375,0,0,5.034669,9.709524,-919.8953)" /><linearGradient
       x1="126.17725"
       y1="175.92969"
       x2="126.17725"
       y2="186.74023"
       id="linearGradient2056"
       xlink:href="#XMLID_38_"
       gradientUnits="userSpaceOnUse"
       gradientTransform="matrix(0.9375,0,0,0.9375,9.70952,-151.0913)" /><radialGradient
       cx="126.17676"
       cy="181.33594"
       r="81.344734"
       fx="126.17676"
       fy="181.33594"
       id="radialGradient2059"
       xlink:href="#XMLID_31_"
       gradientUnits="userSpaceOnUse"
       gradientTransform="matrix(0.9375,0,0,0.9375,9.70952,-151.0913)" /><linearGradient
       x1="126.17627"
       y1="185.83984"
       x2="126.17627"
       y2="267.81442"
       id="linearGradient3300"
       xlink:href="#XMLID_41_"
       gradientUnits="userSpaceOnUse" /></defs><metadata
     id="metadata3"><rdf:RDF><cc:Work
         rdf:about=""><dc:format>image/svg+xml</dc:format><dc:type
           rdf:resource="http://purl.org/dc/dcmitype/StillImage" /><dc:title></dc:title></cc:Work></rdf:RDF></metadata><path
     d="m 27.08452,21.4087 c -0.932464,0 -1.75,0.817992 -1.75,1.75 l 0,203.625 0,3.375 0,1.5 0,11.5 c 6e-6,3.46225 2.912752,6.375 6.375,6.375 l 4.25,0 c 3.462262,0 6.375,-2.91275 6.375,-6.375 l 0,-9.75 170.875,0 0,9.75 c 0,3.46225 3.03773,6.375 6.5,6.375 l 4.125,0 c 3.46228,0 6.375,-2.91275 6.375,-6.375 l 0,-11.5 0,-1.5 0,-3.375 0,-203.625 c 0,-0.932004 -0.81616,-1.75 -1.75,-1.75 l -1.625,0 -199.75,0 z"
     id="path19850"
     style="fill:#460000;fill-opacity:1;stroke:none" /><path
     d="m 26.900834,10.466313 c -3.539428,0 -6.418761,2.879334 -6.418761,6.416934 l 0,4.053956 c 0,3.539428 2.879333,6.419681 6.418761,6.419681 l 202.198326,0 c 3.53944,0 6.41877,-2.880253 6.41877,-6.419681 l 0,-4.053956 c 0,-3.5376 -2.87933,-6.416934 -6.41877,-6.416934 l -202.198326,0 z"
     id="path298"
     style="fill:url(#radialGradient2059)" /><path
     d="m 23.860827,20.937203 c 0,1.679081 1.360931,3.040463 3.040007,3.040463 l 202.198326,0 c 1.67909,0 3.04139,-1.361382 3.04139,-3.040463 l 0,-4.053956 c 0,-1.679072 -1.3623,-3.040463 -3.04139,-3.040463 l -202.198326,0 c -1.679076,0 -3.040007,1.361391 -3.040007,3.040463 l 0,4.053956 0,0 z"
     id="path423"
     style="fill:url(#linearGradient2056)" /><rect
     width="198.04047"
     height="204.086"
     x="28.768057"
     y="24.822702"
     id="rect444"
     style="fill:url(#linearGradient2053);stroke:none" /><rect
     width="198.04047"
     height="27.711182"
     x="28.768053"
     y="24.689949"
     id="rect459"
     style="opacity:0.7;fill:url(#linearGradient2050)" /><path
     d="m 225.1212,24.82271 0,204.08599 -196.353144,0 0,1.26617 198.040464,0 0,-205.35216 -1.68732,0 z"
     id="polygon480"
     style="fill:#000000;fill-opacity:1;stroke:none" /><g
     transform="matrix(0.9375,0,0,0.9375,9.70952,-151.0913)"
     id="g18813"><polygon
       points="201.84668,222.77344 201.84668,193.0459 200.04492,193.0459 200.04492,193.0459 50.508301,193.0459 50.508301,222.77344 "
       id="polygon461"
       style="fill:#824f26" /><path
       d="m 52.308594,194.84766 c 0,2.97558 0,23.14746 0,26.12402 2.632812,0 145.103516,0 147.736326,0 0,-2.97656 0,-23.14844 0,-26.12402 -2.63281,0 -145.103514,0 -147.736326,0 z"
       id="path476"
       style="fill:url(#linearGradient3300)" /><path
       d="m 54.110352,196.64941 c 2.480957,0 129.192378,0 145.934568,0 0,-0.8125 0,-1.43945 0,-1.80175 -2.63281,0 -145.103514,0 -147.736326,0 0,2.97558 0,23.14746 0,26.12402 0.151855,0 0.783691,0 1.801758,0 0,-5.84668 0,-21.70898 0,-24.32227 z"
       id="path478"
       style="opacity:0.7;fill:#ffffff" /><circle
       cx="129.32935"
       cy="211.06152"
       r="9.0085449"
       id="circle482"
       style="opacity:0.2" /><circle
       cx="127.52783"
       cy="209.25977"
       r="9.0073242"
       id="circle484"
       style="fill:#663333" /><path
       d="m 127.52905,202.05346 c -3.97657,0 -7.208,3.23389 -7.208,7.2085 0,3.97363 3.23143,7.20605 7.208,7.20605 3.97363,0 7.20606,-3.23242 7.20606,-7.20605 0,-3.97461 -3.23243,-7.2085 -7.20606,-7.2085 z"
       id="path486"
       style="fill:url(#linearGradient20037);fill-opacity:1;stroke:none" /></g><use
     transform="translate(0,32.65965)"
     id="use18933"
     x="0"
     y="0"
     width="256"
     height="256"
     xlink:href="#g18813" /><use
     transform="translate(0,65.3193)"
     id="use18935"
     x="0"
     y="0"
     width="256"
     height="256"
     xlink:href="#g18813" /><use
     transform="translate(0,97.97897)"
     id="use18937"
     x="0"
     y="0"
     width="256"
     height="256"
     xlink:href="#g18813" /><use
     transform="translate(0,130.6386)"
     id="use18939"
     x="0"
     y="0"
     width="256"
     height="256"
     xlink:href="#g18813" /><use
     transform="translate(0,163.2982)"
     id="use18941"
     x="0"
     y="0"
     width="256"
     height="256"
     xlink:href="#g18813" /><path
     d="m 28.768056,230.17487 0,13 c 4e-6,1.67908 1.320928,3 3,3 l 4.125,0 c 1.67908,0 3,-1.32093 3,-3 l 0,-13 -10.125,0 z"
     id="path18963"
     style="fill:url(#linearGradient2033);fill-opacity:1" /><use
     transform="translate(188,0)"
     id="use3292"
     x="0"
     y="0"
     width="256"
     height="256"
     xlink:href="#path18963" /></svg>