<?xml version="1.0" encoding="UTF-8" standalone="no"?><svg xmlns:rdf="http://www.w3.org/1999/02/22-rdf-syntax-ns#" xmlns="http://www.w3.org/2000/svg" height="48" width="48" version="1.1" xmlns:cc="http://creativecommons.org/ns#" xmlns:xlink="http://www.w3.org/1999/xlink" xmlns:dc="http://purl.org/dc/elements/1.1/"><title>No Smileys, please</title><defs><radialGradient id="radialGradient2714-5" fx="29.1585" fy="15.7557" gradientUnits="userSpaceOnUse" cy="15.721" cx="29.2881" gradientTransform="matrix(1.2362862,0,0,1.2362863,-6.8509031,-4.9927161)" r="8.90208"><stop stop-color="#fffcde" offset="0"/><stop stop-color="#f6e76a" offset="0.64486"/><stop stop-color="#ffb738" offset="1"/></radialGradient><radialGradient id="radialGradient3176" gradientUnits="userSpaceOnUse" cy="39.5928" cx="25.0527" gradientTransform="matrix(1.5453582,0,0,1.5453583,-12.701116,-23.035398)" r="15.7572"><stop stop-color="#777" offset="0"/><stop stop-color="#000" offset="1"/></radialGradient><filter id="filter4015"><feGaussianBlur stdDeviation="0.44112"/></filter></defs><metadata><rdf:RDF><cc:Work rdf:about=""><dc:format>image/svg+xml</dc:format><dc:type rdf:resource="http://purl.org/dc/dcmitype/StillImage"/><dc:title>No Smileys, please</dc:title><dc:subject><rdf:Bag><rdf:li>emoticon</rdf:li><rdf:li>emote</rdf:li><rdf:li>smiley</rdf:li><rdf:li>happy</rdf:li><rdf:li>:)</rdf:li><rdf:li>:-)</rdf:li></rdf:Bag></dc:subject><cc:license rdf:resource="http://creativecommons.org/licenses/by-sa/2.0/"/><dc:creator><cc:Agent><dc:title>Jakub Steiner</dc:title></cc:Agent></dc:creator><dc:source>http://jimmac.musichall.cz</dc:source></cc:Work><cc:License rdf:about="http://creativecommons.org/licenses/by-sa/2.0/"><cc:permits rdf:resource="http://web.resource.org/cc/Reproduction"/><cc:permits rdf:resource="http://web.resource.org/cc/Distribution"/><cc:requires rdf:resource="http://web.resource.org/cc/Notice"/><cc:requires rdf:resource="http://web.resource.org/cc/Attribution"/><cc:permits rdf:resource="http://web.resource.org/cc/DerivativeWorks"/><cc:requires rdf:resource="http://web.resource.org/cc/ShareAlike"/></cc:License></rdf:RDF></metadata><g><path filter="url(#filter4015)" style="baseline-shift:baseline;block-progression:tb;color:#000000;direction:ltr;text-indent:0;text-align:start;enable-background:accumulate;text-transform:none;" fill="#e6e6e6" d="m24.8765,2.59298c-12.1546,0-22.056,9.87696-22.056,22.0403s9.90137,22.0717,22.056,22.0717,22.056-9.90844,22.056-22.0717-9.90138-22.0403-22.056-22.0403z"/></g><g><path style="baseline-shift:baseline;block-progression:tb;color:#000000;direction:ltr;text-indent:0;text-align:start;enable-background:accumulate;text-transform:none;" d="m23.4192,1.96875c-12.0721,0-21.9062,9.8029-21.9062,21.875s9.83415,21.9062,21.9062,21.9062c12.0721,0,21.9062-9.83415,21.9062-21.9062,0-12.0721-9.83416-21.875-21.9062-21.875z" fill="#FFF"/><g transform="matrix(0.80887407,0,0,0.80887403,3.794157,5.2606283)"><g><path stroke-linejoin="round" style="color:#000000;" d="m39.7748,19.0086c0,4.78392-3.87814,8.66206-8.66206,8.66206s-8.66206-3.87814-8.66206-8.66206,3.87814-8.66206,8.66206-8.66206,8.66206,3.87814,8.66206,8.66206z" fill-rule="evenodd" transform="matrix(2.083142,0,0,2.083142,-40.54715,-16.49224)" stroke-dashoffset="0" stroke="#9c8c0a" stroke-linecap="round" stroke-miterlimit="4" stroke-width="0.48004404" fill="url(#radialGradient2714-5)"/><path opacity="0.67721522" stroke-linejoin="round" style="color:#000000;" d="m39.7748,19.0086c0,4.78392-3.87814,8.66206-8.66206,8.66206s-8.66206-3.87814-8.66206-8.66206,3.87814-8.66206,8.66206-8.66206,8.66206,3.87814,8.66206,8.66206z" transform="matrix(1.979782,0,0,1.979782,-37.33128,-14.52746)" stroke-dashoffset="0" stroke="#FFF" stroke-linecap="round" stroke-miterlimit="4" stroke-width="0.50510627" fill="none"/><path opacity="0.36000001" style="color:#000000;" d="m37.2846,24.72c-3.01647,5.22467-6.5435,8.99004-12.8221,8.99004-6.10002,0-10.5655-4.3397-13.3525-9.16682,2.54941,3.05592,6.28293,6.56631,13.0873,6.56631,8.1302,0,9.55178-2.90686,13.0873-6.38954z" fill-rule="nonzero" fill="#FFF"/><path d="m37.2846,24.0129c-3.01647,5.22467-6.5435,8.99004-12.8221,8.99004-6.10002,0-10.5655-4.3397-13.3525-9.16682,2.54941,3.05592,6.28293,6.56631,13.0873,6.56631,8.1302,0,9.55178-2.90686,13.0873-6.38954z" fill-rule="nonzero" fill="url(#radialGradient3176)"/><path opacity="0.36000001" d="m21.7517,17.7141c0,2.5-1.125,4.5-2.5,4.5s-2.625-2-2.625-4.5,1.125-4.5,2.5-4.5,2.5,2,2.5,4.5h0.125z" fill-rule="nonzero" fill="#FFF"/><path opacity="0.36000001" d="m31.0421,17.7141c0,2.5-1.125,4.5-2.5,4.5s-2.5-2-2.5-4.5,1.125-4.5,2.5-4.5,2.5,2,2.5,4.5z" fill-rule="nonzero" fill="#FFF"/><path d="m21.7517,17.0891c0,2.5-1.125,4.5-2.5,4.5s-2.5-2-2.5-4.5,1.125-4.5,2.5-4.5,2.5,2,2.5,4.5z" fill-rule="nonzero" fill="#000"/><path d="m31.0421,17.0891c0,2.5-1.125,4.5-2.5,4.5s-2.5-2-2.5-4.5,1.125-4.5,2.5-4.5,2.5,2,2.5,4.5z" fill-rule="nonzero" fill="#000"/></g></g></g><g><path style="baseline-shift:baseline;block-progression:tb;color:#000000;direction:ltr;text-indent:0;text-align:start;enable-background:accumulate;text-transform:none;" d="m23.4192,1.96875c-12.0721,0-21.9062,9.8029-21.9062,21.875s9.83415,21.9062,21.9062,21.9062c12.0721,0,21.9062-9.83415,21.9062-21.9062,0-12.0721-9.83416-21.875-21.9062-21.875zm0,3.34375c4.54998,0,8.68553,1.63582,11.9062,4.34375l-26.1249,26.0938c-2.70002-3.2185-4.3125-7.3637-4.3125-11.9062,0-10.2559,8.2754-18.5313,18.5312-18.5313zm14.2812,6.71875c2.65752,3.20651,4.25,7.30981,4.25,11.8125,0,10.2558-8.27544,18.5312-18.5312,18.5312-4.51106,0-8.63469-1.58359-11.8438-4.25l26.125-26.0938z" stroke="#fa0000" stroke-miterlimit="4" stroke-dasharray="none" stroke-width="0.63999999" fill="#F00"/></g></svg>